<?xml version="1.0" standalone="no"?>
<!DOCTYPE svg PUBLIC "-//W3C//DTD SVG 20010904//EN"
 "http://www.w3.org/TR/2001/REC-SVG-20010904/DTD/svg10.dtd">
<svg version="1.0" xmlns="http://www.w3.org/2000/svg"
 width="420.000000pt" height="420.000000pt" viewBox="0 0 420.000000 420.000000"
 preserveAspectRatio="xMidYMid meet">

<g transform="translate(0.000000,420.000000) scale(0.100000,-0.100000)"
fill="#000000" stroke="none">
<path d="M1650 3823 c-85 -7 -306 -53 -380 -78 -89 -30 -183 -81 -272 -147
-107 -78 -150 -151 -163 -270 l-6 -58 -36 0 c-81 0 -135 -69 -173 -225 -38
-154 -14 -319 68 -453 25 -43 43 -94 69 -207 33 -143 82 -294 102 -319 5 -6
12 -38 16 -71 l8 -60 -43 48 c-52 59 -72 61 -69 8 2 -29 6 -37 18 -34 25 6
101 -57 103 -87 1 -14 2 -52 4 -85 1 -33 7 -80 14 -105 6 -25 10 -61 9 -80 -2
-20 1 -42 6 -50 5 -8 18 -46 27 -85 25 -94 105 -254 172 -341 30 -39 66 -95
81 -125 35 -69 99 -155 127 -170 17 -9 24 -9 33 4 10 14 18 9 61 -34 27 -28
64 -59 82 -71 18 -11 43 -41 57 -67 37 -74 56 -82 81 -37 6 11 23 29 37 40
l27 20 72 -70 c40 -39 88 -80 105 -93 l33 -22 22 23 c43 45 63 73 97 133 19
33 38 63 44 66 17 11 55 -5 77 -33 12 -16 28 -28 35 -28 7 0 24 27 37 60 12
33 28 60 34 60 16 0 76 68 121 137 20 32 39 60 41 63 1 2 13 -9 25 -24 l23
-29 27 32 c15 18 31 40 36 49 8 14 13 15 28 4 30 -20 122 -61 176 -77 28 -8
54 -20 58 -26 7 -12 59 -4 59 9 0 21 -78 63 -187 101 -67 24 -130 52 -139 62
-36 39 -8 123 44 136 29 7 110 -8 199 -36 32 -10 59 -18 61 -16 12 11 -19 37
-66 56 -121 47 -190 89 -201 121 -23 64 36 122 124 122 41 0 56 4 60 16 9 30
25 186 25 242 0 57 0 58 28 58 16 0 37 9 47 20 19 21 22 18 -31 35 -11 3 -14
1 -11 -8 3 -8 1 -20 -5 -28 -6 -10 -8 -3 -6 23 2 21 1 39 -3 40 -4 2 -12 66
-18 143 -6 77 -16 181 -22 230 l-12 90 37 37 38 38 -4 207 c-2 115 1 256 6
314 10 118 -6 217 -50 317 l-23 52 25 37 c25 38 54 121 54 159 0 32 -12 84
-19 84 -3 0 -14 -23 -24 -51 -15 -41 -25 -53 -52 -65 -57 -24 -97 -18 -141 20
-106 91 -386 250 -523 297 -116 41 -299 63 -421 52z m545 -753 c69 -17 140
-37 158 -45 72 -30 121 -107 175 -276 17 -52 51 -141 76 -197 26 -57 48 -110
49 -120 2 -9 9 -28 16 -41 19 -35 27 -335 12 -441 -22 -145 -70 -238 -142
-276 -27 -14 -69 -19 -69 -9 0 3 7 16 15 29 35 53 21 116 -33 155 -39 27 -51
27 -24 -2 11 -12 24 -35 27 -50 18 -71 -87 -100 -255 -70 -66 12 -198 9 -212
-5 -7 -7 -22 -12 -35 -12 -18 0 -23 6 -23 28 l0 27 -21 -32 c-29 -46 -100 -68
-213 -67 -84 0 -90 2 -112 28 -13 15 -24 37 -25 49 l0 22 -9 -23 c-6 -13 -6
-32 0 -48 15 -38 13 -44 -15 -44 -38 0 -120 -34 -164 -69 -21 -17 -58 -38 -81
-46 -52 -18 -124 -19 -138 -2 -21 25 -25 66 -8 92 9 13 16 27 16 31 0 15 -33
-22 -50 -57 -22 -43 -13 -96 22 -129 l22 -20 -23 0 c-37 0 -87 29 -102 58 -8
15 -18 30 -24 34 -5 4 -6 8 -1 8 5 0 4 6 -2 13 -33 41 -64 333 -42 393 10 26
-15 192 -72 468 -24 114 -21 248 7 326 34 98 154 193 258 205 23 3 130 14 237
26 200 20 361 47 459 76 50 14 176 40 209 42 7 1 69 -13 137 -29z m119 -1522
c-10 -87 -34 -138 -100 -207 -73 -77 -146 -122 -203 -123 -22 0 -44 2 -49 6
-5 3 -29 -1 -52 -9 -66 -23 -72 -17 -9 9 83 34 234 155 211 169 -5 4 -24 -6
-43 -22 -105 -84 -157 -113 -223 -121 -49 -6 -76 -4 -108 7 -24 8 -51 17 -62
19 -16 3 -44 16 -144 69 -36 19 -52 13 -36 -12 16 -25 134 -92 199 -113 33
-10 52 -19 43 -19 -9 -1 -33 -11 -53 -23 -33 -19 -42 -20 -86 -10 -49 12 -114
47 -158 86 -29 26 -101 134 -101 153 0 20 67 16 99 -6 14 -10 67 -26 116 -36
49 -9 95 -21 102 -26 15 -13 183 -13 196 1 6 5 28 10 49 10 21 0 38 4 38 9 0
5 8 11 18 13 9 3 20 6 24 7 17 4 205 131 228 152 21 21 83 56 102 58 4 1 5
-18 2 -41z m-464 -8 c0 -9 -61 -20 -109 -20 -48 0 -34 8 30 18 68 10 79 10 79
2z m175 -49 c17 -7 14 -10 -20 -20 -75 -22 -275 -52 -322 -49 -57 4 -64 22
-10 26 20 2 35 7 32 12 -5 8 94 23 151 23 13 0 27 3 30 8 6 11 112 11 139 0z
m-197 -298 c-10 -2 -28 -2 -40 0 -13 2 -5 4 17 4 22 1 32 -1 23 -4z"/>
<path d="M2054 2645 c-80 -17 -162 -53 -175 -76 -12 -23 3 -55 29 -64 11 -3
48 8 88 27 90 42 193 49 309 20 77 -19 105 -17 105 9 0 15 -60 47 -125 68 -81
26 -157 31 -231 16z"/>
<path d="M1199 2519 c-94 -15 -229 -111 -229 -165 0 -37 13 -36 76 7 90 60
140 73 250 66 73 -5 95 -3 104 8 18 22 8 59 -20 71 -34 16 -125 22 -181 13z"/>
<path d="M2114 2342 c-71 -25 -100 -46 -137 -98 -36 -51 -55 -97 -56 -134 -1
-19 7 -11 32 34 40 71 57 81 57 34 0 -37 33 -98 53 -98 7 0 37 9 67 19 30 10
83 27 118 36 l62 18 0 41 c0 24 -9 55 -21 75 -11 18 -18 35 -16 37 8 8 61 -17
109 -52 60 -42 63 -24 5 31 -32 30 -60 46 -103 58 -75 21 -106 21 -170 -1z m5
-81 c7 -13 6 -23 -3 -36 -17 -24 -50 -15 -54 14 -6 39 39 56 57 22z"/>
<path d="M1179 2206 c-74 -26 -149 -104 -149 -155 0 -33 17 -33 31 0 14 36 76
99 96 99 10 0 11 -5 3 -19 -5 -11 -10 -38 -10 -61 0 -78 4 -80 145 -80 142 0
145 2 145 86 l0 48 43 -42 c23 -23 45 -42 49 -42 3 0 8 9 11 20 3 11 1 18 -3
15 -5 -3 -35 17 -66 46 -100 90 -200 119 -295 85z m75 -62 c22 -21 3 -56 -27
-52 -25 3 -34 32 -17 53 16 19 25 19 44 -1z"/>
<path d="M2843 2288 c-29 -32 -49 -76 -57 -123 l-7 -40 20 41 c10 23 38 59 61
82 39 38 46 62 16 62 -7 0 -22 -10 -33 -22z"/>
<path d="M3451 1792 c-36 -72 -61 -152 -60 -186 2 -27 2 -28 6 -6 7 41 24 91
55 163 34 79 33 100 -1 29z"/>
<path d="M3123 1758 c-4 -13 -7 -74 -6 -137 1 -63 -2 -123 -8 -133 -5 -10 -7
-18 -5 -18 3 0 12 13 21 30 11 22 15 59 13 155 -1 69 -3 125 -4 125 -1 0 -6
-10 -11 -22z"/>
<path d="M2520 866 c0 -11 18 -37 41 -58 32 -31 38 -42 29 -53 -9 -11 -7 -12
9 -8 22 6 161 -25 161 -36 0 -3 11 -7 25 -7 13 -1 32 -9 40 -18 17 -17 38 -19
69 -7 29 11 -52 59 -151 87 -114 33 -187 67 -207 95 -14 21 -16 21 -16 5z"/>
<path d="M3610 862 c0 -27 -70 -131 -113 -169 -96 -84 -421 -180 -575 -170
-145 9 -317 84 -349 152 l-14 30 6 -34 c3 -19 13 -44 23 -54 26 -30 146 -82
246 -107 76 -19 104 -21 184 -15 332 25 517 136 602 361 6 15 6 24 0 24 -6 0
-10 -8 -10 -18z"/>
</g>
</svg>
